<svg width="320" height="320" fill="none" xmlns="http://www.w3.org/2000/svg"><path fill-rule="evenodd" clip-rule="evenodd" d="M9.27 99h285.453l17.511 116.273c.489 7.324-2.213 14.72-7.395 19.911l-39.325 39.751c-4.773 4.782-11.244 8.338-18 8.338h-64.729c-14.062 0-29.804-13.147-29.804-27.2v-.463c0-5.554 3.914-10.759 7.107-15.005l.2-.266-84.294-4.115c-2-.089-6.986-.169-13.004-.24-19.467-.222-35.876-14.614-38.587-33.894L8.75 103.006c.097-1.358.272-2.695.52-4.006zm75.276 38.592l55.437 14.854c.011.342.017.686.017 1.031 0 16.568-13.432 30-30 30-16.569 0-30-13.432-30-30a29.858 29.858 0 014.546-15.885zm95.473 14.808l55.41-14.847A29.86 29.86 0 01240 153.477c0 16.568-13.432 30-30 30-16.569 0-30-13.432-30-30 0-.361.006-.72.019-1.077z" fill="#fff"/><path fill-rule="evenodd" clip-rule="evenodd" d="M288.328 82.026c.241 1.393.87 2.681 1.69 3.833 2.692 3.784 4.354 8.219 4.67 12.907l1.211 8.043c.729 4.838-3.018 9.191-7.911 9.191H17.638a8 8 0 01-7.902-6.752l-.843-5.337a7.191 7.191 0 01-.066-1.82c1.6-16.356 14.477-29.42 30.9-31.183l47.459-7.58a8 8 0 017.416 2.79l11.313 13.625a8 8 0 007.407 2.791l90.334-14.307a7.998 7.998 0 005.386-3.436l13.836-20.561a8 8 0 015.375-3.434l19.386-3.097c18.044-1.928 34.542 10.338 37.884 28.17l2.805 16.157z" fill="#fff"/></svg>